<svg width="75" height="81" viewBox="0 0 75 81" fill="none" xmlns="http://www.w3.org/2000/svg">
<rect x="4" y="2" width="67" height="62" rx="31" fill="#FFFFFA"/>
<g filter="url(#filter0_d)">
<path d="M14.2957 73C13.6459 72.997 13.0072 72.8343 12.4373 72.5266C11.8674 72.2189 11.3843 71.7759 11.0318 71.2378C10.6793 70.6996 10.4685 70.0833 10.4185 69.4445C10.3685 68.8058 10.4808 68.1649 10.7454 67.5798L15.2422 57.6881C11.7007 54.5997 8.86655 50.8035 6.9282 46.5517C4.98985 42.2999 3.99168 37.69 4.00005 33.0285C4.00005 14.8168 19.028 0 37.5 0C55.9721 0 71 14.8168 71 33.0285C71 51.2403 55.9721 66.057 37.5 66.057C34.2687 66.0539 31.0549 65.5872 27.9599 64.6716L16.4834 72.3317C15.8386 72.7656 15.0764 72.9984 14.2957 73ZM37.5 4.60863C31.5217 4.60521 25.6904 6.43556 20.8144 9.84594C15.9385 13.2563 12.2594 18.0778 10.2872 23.642C8.31502 29.2062 8.14741 35.2375 9.80763 40.8999C11.4678 46.5622 14.8737 51.5751 19.5529 55.2436L20.9695 56.3575L16.1312 67.0014L27.2344 59.5904L28.3308 59.9535C32.2913 61.2653 36.4938 61.7123 40.647 61.2636C44.8002 60.8149 48.8047 59.4812 52.3832 57.3549C55.9616 55.2287 60.0679 49.9627 62.4103 46.5517C64.7527 43.1407 32.226 39.6503 32.8996 35.585C33.5731 31.5196 66.3263 33.2079 65.2065 29.2394C64.0867 25.2708 62.1698 17.7562 59.4637 14.6178C56.7575 11.4794 53.3915 8.9587 49.599 7.23039C45.8064 5.50208 41.6781 4.60749 37.5 4.60863Z" fill="#EF4565"/>
<path d="M37.5003 3.10863C31.2159 3.10517 25.0841 5.02916 19.9547 8.61676C14.8249 12.2047 10.9508 17.2797 8.87339 23.1409C6.79585 29.0023 6.6192 35.3567 8.36823 41.3219C10.1172 47.2868 13.7039 52.5639 18.6272 56.4239C18.6273 56.4239 18.6274 56.424 18.6274 56.424L19.1167 56.8087L14.7656 66.3807L12.7104 70.9021C12.5474 70.7598 12.4047 70.5963 12.2866 70.4159C12.0717 70.0878 11.9441 69.7137 11.9139 69.3275C11.8837 68.942 11.9512 68.5546 12.1113 68.1997C12.1116 68.1991 12.1119 68.1984 12.1122 68.1977L16.6077 58.3089L17.07 57.2919L16.228 56.5576C12.8467 53.6089 10.1422 49.9856 8.29306 45.9295C6.44392 41.8734 5.49207 37.4766 5.50005 33.0312V33.0285C5.50005 15.6652 19.8363 1.5 37.5 1.5C55.1638 1.5 69.5 15.6652 69.5 33.0285C69.5 50.3914 55.1646 64.5563 37.5015 64.557C34.4135 64.554 31.3426 64.108 28.3854 63.2332L27.7116 63.0339L27.1271 63.424L15.6507 71.084L15.646 71.0872C15.2503 71.3534 14.7805 71.4981 14.2974 71.5C13.895 71.4973 13.5007 71.3961 13.1499 71.2067C13.0395 71.1471 12.9345 71.0794 12.8359 71.0044L16.9639 68.249L27.4581 61.2446L27.8591 61.3774C32.0236 62.7568 36.4419 63.2267 40.8081 62.755C45.1744 62.2832 49.3854 60.881 53.1494 58.6445C55.1446 57.459 57.1904 55.4679 58.9865 53.4257C60.8031 51.3604 62.4519 49.1408 63.6468 47.4008C63.8459 47.1109 63.9983 46.7502 64.0264 46.3322C64.0545 45.9134 63.9511 45.5373 63.793 45.2281C63.5032 44.6614 63.0075 44.271 62.6023 44.0087C61.7592 43.4629 60.5188 42.982 59.1515 42.5427C56.4697 41.6812 52.7515 40.815 49.039 39.9502C48.8997 39.9178 48.7604 39.8853 48.6212 39.8529C44.7243 38.9447 40.8646 38.0358 38.0212 37.1079C36.5875 36.6401 35.5121 36.1985 34.8408 35.7965C34.8401 35.7961 34.8395 35.7957 34.8388 35.7953C34.9011 35.7698 34.969 35.7434 35.0427 35.7164C35.8558 35.4188 37.066 35.1533 38.6131 34.9196C41.6898 34.455 45.7453 34.1646 49.8326 33.872L49.8456 33.8711C53.883 33.5821 57.9619 33.2901 60.9604 32.8149C62.442 32.5802 63.7899 32.2823 64.7629 31.8615C65.2394 31.6554 65.7753 31.3582 66.1706 30.9007C66.6282 30.3711 66.8767 29.6352 66.6501 28.832C66.5561 28.4989 66.4556 28.1373 66.3486 27.7526C65.8287 25.8823 65.157 23.4661 64.3475 21.1268C63.3888 18.356 62.1578 15.4452 60.5997 13.6383C57.7512 10.3348 54.2095 7.68306 50.221 5.86544C46.2327 4.04793 41.8923 3.10752 37.5003 3.10863ZM37.5003 3.10863C37.5001 3.10863 37.4998 3.10863 37.4996 3.10863L37.5 4.60863L37.5009 3.10863C37.5007 3.10863 37.5005 3.10863 37.5003 3.10863ZM34.2586 36.1113C34.2585 36.1113 34.2595 36.1102 34.2618 36.1081C34.2598 36.1102 34.2587 36.1113 34.2586 36.1113Z" stroke="black" stroke-width="3"/>
</g>
<ellipse cx="52" cy="21.5" rx="5" ry="5.5" fill="#3DA9FC"/>
<ellipse cx="52" cy="21.5" rx="2" ry="2.5" fill="#0D0D0D"/>
<path d="M15.3995 68.6161L19.5659 59.7923L23.071 62.0891L15.3995 68.6161Z" fill="#F1F1E8" stroke="#F1F1E8" stroke-width="0.3"/>
<defs>
<filter id="filter0_d" x="0" y="0" width="75" height="81" filterUnits="userSpaceOnUse" color-interpolation-filters="sRGB">
<feFlood flood-opacity="0" result="BackgroundImageFix"/>
<feColorMatrix in="SourceAlpha" type="matrix" values="0 0 0 0 0 0 0 0 0 0 0 0 0 0 0 0 0 0 127 0"/>
<feOffset dy="4"/>
<feGaussianBlur stdDeviation="2"/>
<feColorMatrix type="matrix" values="0 0 0 0 0 0 0 0 0 0 0 0 0 0 0 0 0 0 0.25 0"/>
<feBlend mode="normal" in2="BackgroundImageFix" result="effect1_dropShadow"/>
<feBlend mode="normal" in="SourceGraphic" in2="effect1_dropShadow" result="shape"/>
</filter>
</defs>
</svg>
