<svg width="377" height="356" viewBox="0 0 377 356" fill="none" xmlns="http://www.w3.org/2000/svg">
<rect x="4" y="10" width="369" height="295" rx="147.5" fill="#FFFFFA"/>
<g filter="url(#filter0_d)">
<mask id="path-2-inside-1" fill="white">
<path d="M60.7032 348C57.1247 347.986 53.6068 347.21 50.468 345.743C47.3292 344.277 44.6687 342.165 42.7273 339.599C40.7859 337.034 39.625 334.096 39.3496 331.051C39.0741 328.006 39.6929 324.95 41.15 322.161L65.9158 275.007C46.4112 260.284 30.8023 242.186 20.127 221.918C9.45157 201.649 3.9542 179.673 4.00029 157.451C4.00029 70.6334 86.7659 0 188.5 0C290.235 0 373 70.6334 373 157.451C373 244.269 290.234 314.902 188.5 314.902C170.704 314.887 153.004 312.662 135.958 308.298L72.752 344.814C69.2006 346.882 65.0029 347.992 60.7032 348ZM188.5 21.9699C155.575 21.9536 123.459 30.6791 96.6049 46.9368C69.7507 63.1946 49.4883 86.1792 38.6266 112.704C27.7648 139.23 26.8417 167.982 35.9853 194.975C45.1289 221.968 63.8862 245.865 89.6571 263.353L97.4591 268.663L70.8119 319.404L131.963 284.075L138.001 285.806C159.813 292.059 182.958 294.19 205.832 292.051C228.705 289.912 250.76 283.554 270.468 273.418C290.176 263.282 312.792 238.178 325.692 221.918C338.593 205.657 159.454 189.018 163.163 169.638C166.873 150.258 347.26 158.306 341.092 139.388C334.925 120.469 324.368 84.646 309.464 69.6849C294.56 54.7237 276.022 42.7072 255.135 34.4682C234.247 26.2291 211.511 21.9645 188.5 21.9699Z"/>
</mask>
<path d="M60.7032 348C57.1247 347.986 53.6068 347.21 50.468 345.743C47.3292 344.277 44.6687 342.165 42.7273 339.599C40.7859 337.034 39.625 334.096 39.3496 331.051C39.0741 328.006 39.6929 324.95 41.15 322.161L65.9158 275.007C46.4112 260.284 30.8023 242.186 20.127 221.918C9.45157 201.649 3.9542 179.673 4.00029 157.451C4.00029 70.6334 86.7659 0 188.5 0C290.235 0 373 70.6334 373 157.451C373 244.269 290.234 314.902 188.5 314.902C170.704 314.887 153.004 312.662 135.958 308.298L72.752 344.814C69.2006 346.882 65.0029 347.992 60.7032 348ZM188.5 21.9699C155.575 21.9536 123.459 30.6791 96.6049 46.9368C69.7507 63.1946 49.4883 86.1792 38.6266 112.704C27.7648 139.23 26.8417 167.982 35.9853 194.975C45.1289 221.968 63.8862 245.865 89.6571 263.353L97.4591 268.663L70.8119 319.404L131.963 284.075L138.001 285.806C159.813 292.059 182.958 294.19 205.832 292.051C228.705 289.912 250.76 283.554 270.468 273.418C290.176 263.282 312.792 238.178 325.692 221.918C338.593 205.657 159.454 189.018 163.163 169.638C166.873 150.258 347.26 158.306 341.092 139.388C334.925 120.469 324.368 84.646 309.464 69.6849C294.56 54.7237 276.022 42.7072 255.135 34.4682C234.247 26.2291 211.511 21.9645 188.5 21.9699Z" fill="#EF4565"/>
<path d="M60.7032 348L59.9115 547.998L60.4844 548.001L61.0574 548L60.7032 348ZM41.15 322.161L-135.915 229.166L-136.019 229.364L-136.122 229.562L41.15 322.161ZM65.9158 275.007L242.98 368.002L321.932 217.676L186.409 115.378L65.9158 275.007ZM4.00029 157.451L204 157.866L204 157.658V157.451H4.00029ZM188.5 314.902L188.33 514.902L188.415 514.902H188.5V314.902ZM135.958 308.298L185.567 114.548L106.542 94.3137L35.908 135.121L135.958 308.298ZM72.752 344.814L-27.2981 171.638L-27.6024 171.814L-27.9061 171.99L72.752 344.814ZM188.5 21.9699L188.401 221.97L188.474 221.97L188.547 221.97L188.5 21.9699ZM89.6571 263.353L202.187 98.0141L202.074 97.937L201.961 97.8601L89.6571 263.353ZM97.4591 268.663L274.527 361.652L357.475 203.704L209.989 103.324L97.4591 268.663ZM70.8119 319.404L-106.256 226.415L-427.617 838.345L170.862 492.58L70.8119 319.404ZM131.963 284.075L187.07 91.8168L105.44 68.4189L31.9123 110.899L131.963 284.075ZM138.001 285.806L193.12 93.5508L193.108 93.5475L138.001 285.806ZM61.495 148.002C85.9293 148.098 111.141 153.335 135.144 164.553L-34.2081 526.934C-3.92698 541.085 28.3201 547.873 59.9115 547.998L61.495 148.002ZM135.144 164.553C159.168 175.78 183.019 193.552 202.21 218.913L-116.756 460.286C-93.6813 490.778 -64.5097 512.773 -34.2081 526.934L135.144 164.553ZM202.21 218.913C221.609 244.548 235.261 276.825 238.536 313.034L-159.837 349.068C-156.011 391.367 -140.037 429.52 -116.756 460.286L202.21 218.913ZM238.536 313.034C241.823 349.366 234.179 384.595 218.422 414.76L-136.122 229.562C-154.793 265.305 -163.674 306.646 -159.837 349.068L238.536 313.034ZM218.215 415.156L242.98 368.002L-111.149 182.011L-135.915 229.166L218.215 415.156ZM186.409 115.378C188.783 117.17 193.148 121.244 197.083 128.716L-156.829 315.119C-131.543 363.128 -95.9606 403.398 -54.5778 434.635L186.409 115.378ZM197.083 128.716C201.121 136.382 204.024 146.441 204 157.866L-195.999 157.036C-196.115 212.905 -182.218 266.916 -156.829 315.119L197.083 128.716ZM204 157.451C204 180.731 192.448 194.445 187.93 198.301C183.789 201.835 183.426 200 188.5 200V-200C7.21996 -200 -196 -68.3861 -196 157.451H204ZM188.5 200C193.575 200 193.212 201.835 189.071 198.301C184.552 194.445 173 180.731 173 157.451H573C573 -68.3859 369.781 -200 188.5 -200V200ZM173 157.451C173 134.171 184.552 120.457 189.071 116.601C193.212 113.067 193.575 114.902 188.5 114.902V514.902C369.781 514.902 573 383.288 573 157.451H173ZM188.67 114.902C187.357 114.901 186.273 114.729 185.567 114.548L86.3489 502.047C119.735 510.596 154.05 514.873 188.33 514.902L188.67 114.902ZM35.908 135.121L-27.2981 171.638L172.802 517.99L236.008 481.474L35.908 135.121ZM-27.9061 171.99C0.43083 155.486 31.0989 148.052 60.3491 148L61.0574 548C98.9068 547.933 137.97 538.279 173.41 517.637L-27.9061 171.99ZM188.599 -178.03C120.988 -178.064 52.7073 -160.284 -6.97363 -124.152L200.183 218.026C197.013 219.946 194.442 220.884 192.713 221.354C190.973 221.827 189.561 221.97 188.401 221.97L188.599 -178.03ZM-6.97363 -124.152C-66.8245 -87.9181 -117.786 -33.1027 -146.457 36.9151L223.71 188.494C216.762 205.461 206.326 214.307 200.183 218.026L-6.97363 -124.152ZM-146.457 36.9151C-175.468 107.763 -178.147 186.209 -153.442 259.141L225.413 130.808C231.83 149.754 230.998 170.697 223.71 188.494L-146.457 36.9151ZM-153.442 259.141C-129.003 331.289 -80.9356 389.291 -22.6467 428.846L201.961 97.8601C208.708 102.439 219.26 112.646 225.413 130.808L-153.442 259.141ZM-22.8733 428.692L-15.0713 434.002L209.989 103.324L202.187 98.0141L-22.8733 428.692ZM-79.6089 175.674L-106.256 226.415L247.88 412.393L274.527 361.652L-79.6089 175.674ZM170.862 492.58L232.013 457.251L31.9123 110.899L-29.2385 146.228L170.862 492.58ZM76.8551 476.333L82.893 478.064L193.108 93.5475L187.07 91.8168L76.8551 476.333ZM82.8816 478.06C128.935 491.264 177.101 495.611 224.453 491.183L187.211 92.9201C188.103 92.8367 188.971 92.8366 189.856 92.9182C190.741 92.9996 191.824 93.1792 193.12 93.5508L82.8816 478.06ZM224.453 491.183C271.799 486.755 318.7 473.514 361.944 451.273L178.993 95.5634C182.821 93.5947 185.612 93.0696 187.211 92.9201L224.453 491.183ZM361.944 451.273C398.702 432.367 426.354 406.846 440.919 392.512C457.92 375.781 472.266 358.959 482.372 346.222L169.013 97.6132C167.831 99.1035 166.275 100.982 164.554 102.929C162.803 104.909 161.347 106.433 160.347 107.417C159.223 108.524 159.571 108.065 161.441 106.585C162.454 105.783 164.298 104.376 166.949 102.606C169.551 100.87 173.592 98.3412 178.993 95.5634L361.944 451.273ZM482.372 346.222C501.761 321.783 521.98 284.451 525.751 235.871C529.56 186.802 515.073 145.785 498.147 117.134C482.318 90.3401 463.7 72.845 451.877 63.0865C439.434 52.8162 427.951 45.7628 420.032 41.3248C393.65 26.541 367.34 19.3003 358.798 16.9252C335.199 10.363 305.505 4.5442 287.421 0.89632C263.723 -3.88369 250.354 -6.74498 243.171 -8.77378C237.91 -10.2599 247.39 -8.17229 261.635 -0.78956C267.674 2.34 289.358 13.7546 311.093 37.1667C334.362 62.2311 375.747 122.86 359.597 207.236L-33.2708 132.039C-49.8845 218.838 -7.53432 281.868 17.9446 309.313C41.8897 335.106 67.0297 348.882 77.5866 354.353C100.869 366.418 123.635 373.113 134.444 376.166C159.403 383.216 189.317 389.164 208.328 392.999C232.952 397.966 245.392 400.567 251.637 402.304C258.018 404.078 243.558 400.956 224.489 390.27C218.398 386.857 208.459 380.827 197.255 371.578C186.67 362.842 168.984 346.368 153.758 320.594C137.434 292.963 123.22 252.964 126.95 204.913C130.643 157.351 150.43 121.037 169.013 97.6132L482.372 346.222ZM359.597 207.236C345.136 282.791 294.177 321.187 276.373 332.994C255.701 346.702 237.893 352.511 232.54 354.207C220.498 358.023 213.642 358.451 219.322 357.708C228.393 356.522 243.352 355.497 268.2 353.957C287.734 352.747 318.421 350.968 343.594 347.515C353.703 346.128 378.996 342.548 405.492 332.629C416.418 328.538 450.239 315.441 481.694 283.932C499.307 266.289 520.959 238.06 532.847 198.064C545.384 155.881 543.094 113.754 531.244 77.4012L150.941 201.374C139.476 166.204 137.207 125.207 149.424 84.1045C160.99 45.188 181.979 17.99 198.609 1.33203C228.097 -28.2063 258.671 -39.5179 265.248 -41.9799C283.045 -48.6426 295.228 -49.5963 289.235 -48.7743C282.204 -47.8098 268.719 -46.8423 243.463 -45.2775C223.522 -44.0419 193.074 -42.2638 167.472 -38.9169C155.815 -37.3931 134.306 -34.2665 111.713 -27.1076C101.085 -23.7398 79.0272 -16.0977 55.3085 -0.369112C34.457 13.4583 -18.3457 54.0625 -33.2708 132.039L359.597 207.236ZM531.244 77.4012C529.695 72.6492 522.681 49.8648 514.265 28.812C508.223 13.6966 489.638 -32.8366 451.155 -71.4667L167.773 210.836C159.974 203.008 154.643 196.055 151.42 191.486C148.115 186.8 145.952 183.089 144.778 180.964C142.604 177.03 142.057 175.324 142.844 177.293C143.504 178.943 144.51 181.682 145.96 186.019C146.661 188.118 147.378 190.322 148.203 192.886C148.889 195.015 150.028 198.573 150.941 201.374L531.244 77.4012ZM451.155 -71.4667C415.605 -107.152 373.379 -133.887 328.523 -151.581L181.746 220.517C178.664 219.301 173.514 216.599 167.773 210.836L451.155 -71.4667ZM328.523 -151.581C283.666 -169.275 235.965 -178.041 188.453 -178.03L188.547 221.97C187.057 221.97 184.828 221.733 181.746 220.517L328.523 -151.581Z" fill="black" mask="url(#path-2-inside-1)"/>
</g>
<ellipse cx="268.5" cy="102" rx="27.5" ry="26" fill="#3DA9FC"/>
<ellipse cx="268.5" cy="102" rx="10.5" ry="12" fill="#0D0D0D"/>
<path d="M66.7822 327.101L89.7284 285.037L109.033 295.986L66.7822 327.101Z" fill="#F1F1E8" stroke="#F1F1E8" stroke-width="0.3"/>
<defs>
<filter id="filter0_d" x="0" y="0" width="377" height="356" filterUnits="userSpaceOnUse" color-interpolation-filters="sRGB">
<feFlood flood-opacity="0" result="BackgroundImageFix"/>
<feColorMatrix in="SourceAlpha" type="matrix" values="0 0 0 0 0 0 0 0 0 0 0 0 0 0 0 0 0 0 127 0"/>
<feOffset dy="4"/>
<feGaussianBlur stdDeviation="2"/>
<feColorMatrix type="matrix" values="0 0 0 0 0 0 0 0 0 0 0 0 0 0 0 0 0 0 0.25 0"/>
<feBlend mode="normal" in2="BackgroundImageFix" result="effect1_dropShadow"/>
<feBlend mode="normal" in="SourceGraphic" in2="effect1_dropShadow" result="shape"/>
</filter>
</defs>
</svg>
