<svg width="75" height="81" viewBox="0 0 75 81" fill="none" xmlns="http://www.w3.org/2000/svg">
<rect x="4" y="2" width="67" height="62" rx="31" fill="#FFFFFA"/>
<g filter="url(#filter0_d)">
<path d="M14.2957 73C13.6459 72.997 13.0072 72.8343 12.4373 72.5266C11.8674 72.2189 11.3843 71.7759 11.0318 71.2378C10.6793 70.6996 10.4685 70.0833 10.4185 69.4445C10.3685 68.8058 10.4808 68.1649 10.7454 67.5798L15.2422 57.6881C11.7007 54.5997 8.86655 50.8035 6.9282 46.5517C4.98985 42.2999 3.99168 37.69 4.00005 33.0285C4.00005 14.8168 19.028 0 37.5 0C55.9721 0 71 14.8168 71 33.0285C71 51.2403 55.9721 66.057 37.5 66.057C34.2687 66.0539 31.0549 65.5872 27.9599 64.6716L16.4834 72.3317C15.8386 72.7656 15.0764 72.9984 14.2957 73ZM37.5 4.60863C31.5217 4.60521 25.6904 6.43556 20.8144 9.84594C15.9385 13.2563 12.2594 18.0778 10.2872 23.642C8.31502 29.2062 8.14741 35.2375 9.80763 40.8999C11.4678 46.5622 14.8737 51.5751 19.5529 55.2436L20.9695 56.3575L16.1312 67.0014L27.2344 59.5904L28.3308 59.9535C32.2913 61.2653 36.4938 61.7123 40.647 61.2636C44.8002 60.8149 48.8047 59.4812 52.3832 57.3549C55.9616 55.2287 60.0679 49.9627 62.4103 46.5517C64.7527 43.1407 32.226 39.6503 32.8996 35.585C33.5731 31.5196 66.3263 33.2079 65.2065 29.2394C64.0867 25.2708 62.1698 17.7562 59.4637 14.6178C56.7575 11.4794 53.3915 8.9587 49.599 7.23039C45.8064 5.50208 41.6781 4.60749 37.5 4.60863Z" fill="#EF4565"/>
<path d="M37.5003 2.60863C31.1139 2.60515 24.8819 4.56037 19.6682 8.20704C14.4537 11.8541 10.5147 17.0137 8.40212 22.9739C6.28946 28.9344 6.10979 35.3964 7.88843 41.4626C9.66695 47.5284 13.314 52.8936 18.3188 56.8174C18.3188 56.8174 18.3189 56.8175 18.3189 56.8175L18.4991 56.9592L14.3104 66.1738L12.5944 69.9488C12.492 69.7414 12.4303 69.5174 12.4124 69.2884C12.3888 68.987 12.4415 68.6838 12.567 68.4054C12.5673 68.4048 12.5675 68.4043 12.5678 68.4037L17.0628 58.5158L17.6793 57.1598L16.5567 56.1808C13.2287 53.2786 10.5675 49.713 8.74801 45.7221C6.92861 41.7312 5.9922 37.4054 6.00005 33.0321V33.0285C6.00005 15.948 20.1057 2 37.5 2C54.8944 2 69 15.948 69 33.0285C69 50.1085 54.8954 64.056 37.502 64.057C34.4618 64.0541 31.4385 63.615 28.5272 62.7538L27.6288 62.488L26.8495 63.0081L15.3731 70.6682L15.3669 70.6723C15.0543 70.8827 14.6822 70.9979 14.2983 71C14.1403 70.9987 13.984 70.9784 13.8327 70.9401L17.2415 68.6649L27.5326 61.796L27.7019 61.852C27.7019 61.852 27.702 61.8521 27.702 61.8521C31.9344 63.2539 36.4246 63.7314 40.8618 63.2521C45.2991 62.7727 49.5789 61.3476 53.4048 59.0743C55.4686 57.848 57.556 55.8093 59.362 53.7559C61.1951 51.6717 62.8562 49.4354 64.0589 47.6839C64.3 47.3328 64.4902 46.8875 64.5253 46.3657C64.5604 45.8429 64.4307 45.3771 64.2381 45.0005C63.8882 44.3162 63.3036 43.8671 62.874 43.589C61.9713 43.0045 60.6759 42.5073 59.3044 42.0667C56.6025 41.1987 52.8666 40.3284 49.165 39.4662C49.0215 39.4327 48.878 39.3993 48.7346 39.3659C44.8312 38.4563 40.9948 37.5523 38.1763 36.6326C37.3873 36.3751 36.7188 36.1291 36.1738 35.8975C36.8509 35.7262 37.6922 35.5644 38.6878 35.414C41.7407 34.9529 45.7739 34.6638 49.8683 34.3708L49.9005 34.3685C53.9236 34.0805 58.019 33.7873 61.0387 33.3088C62.5268 33.073 63.9273 32.7676 64.9614 32.3204C65.4651 32.1025 66.0813 31.7687 66.5489 31.2276C67.0996 30.5903 67.4101 29.6844 67.1313 28.6963C67.0381 28.366 66.9382 28.0064 66.8316 27.6232C66.3119 25.7533 65.6351 23.3188 64.82 20.9633C63.8608 18.1913 62.6048 15.1979 60.9783 13.3117C58.0824 9.95328 54.4822 7.25785 50.4283 5.41046C46.3748 3.56322 41.9637 2.60753 37.5003 2.60863ZM37.5003 2.60863C37.5001 2.60863 37.4998 2.60863 37.4995 2.60863L37.5 4.60863L37.5012 2.60863C37.5009 2.60863 37.5006 2.60863 37.5003 2.60863ZM34.5947 36.4808C34.5947 36.4808 34.5954 36.4802 34.5969 36.479C34.5955 36.4801 34.5948 36.4807 34.5947 36.4808Z" stroke="black" stroke-width="4"/>
</g>
<ellipse cx="52" cy="21.5" rx="5" ry="5.5" fill="#3DA9FC"/>
<ellipse cx="52" cy="21.5" rx="2" ry="2.5" fill="#0D0D0D"/>
<path d="M15.3995 68.6161L19.5659 59.7923L23.071 62.0891L15.3995 68.6161Z" fill="#F1F1E8" stroke="#F1F1E8" stroke-width="0.3"/>
<defs>
<filter id="filter0_d" x="0" y="0" width="75" height="81" filterUnits="userSpaceOnUse" color-interpolation-filters="sRGB">
<feFlood flood-opacity="0" result="BackgroundImageFix"/>
<feColorMatrix in="SourceAlpha" type="matrix" values="0 0 0 0 0 0 0 0 0 0 0 0 0 0 0 0 0 0 127 0"/>
<feOffset dy="4"/>
<feGaussianBlur stdDeviation="2"/>
<feColorMatrix type="matrix" values="0 0 0 0 0 0 0 0 0 0 0 0 0 0 0 0 0 0 0.25 0"/>
<feBlend mode="normal" in2="BackgroundImageFix" result="effect1_dropShadow"/>
<feBlend mode="normal" in="SourceGraphic" in2="effect1_dropShadow" result="shape"/>
</filter>
</defs>
</svg>
